<?xml version="1.0" encoding="utf-8"?>
<svg width="1440" height="195" viewBox="0 0 1440 195" fill="none" xmlns="http://www.w3.org/2000/svg">
    <path d="M0 0H1440V195H0V0Z" fill="#98AECA" fill-opacity="0.25"/>
    <path d="M1440 0H0V111.216C0 111.216 209.738 183.09 335 192.169C460.262 201.248 603.459 187.315 716.5 151C829.541 114.685 926.223 111.216 1073.89 111.216C1221.56 111.216 1440 192.169 1440 192.169V0Z"
          fill="#98AECA" fill-opacity="0.25"/>
    <path d="M1440 0H0V187C0 187 245.5 145 412.5 145C579.5 145 728 163 833.5 173C939 183 1070 170.5 1179 145C1288 119.5 1440 155 1440 155L1440 0Z"
          fill="#98AECA" fill-opacity="0.25"/>
</svg>
